<?xml version="1.0" encoding="UTF-8"?>
<svg width="200" height="200" viewBox="0 0 200 200" version="1.1" xmlns="http://www.w3.org/2000/svg">
  <path d="M140.72,115.77c-7.31,0-13.23-5.92-13.23-13.23s5.92-13.23,13.23-13.23s13.23,5.92,13.23,13.23S148.03,115.77,140.72,115.77z M82.5,89.31c-7.31,0-13.23-5.92-13.23-13.23s5.92-13.23,13.23-13.23s13.23,5.92,13.23,13.23S89.81,89.31,82.5,89.31z M117.28,89.31c-7.31,0-13.23-5.92-13.23-13.23s5.92-13.23,13.23-13.23s13.23,5.92,13.23,13.23S124.59,89.31,117.28,89.31z M59.28,115.77c-7.31,0-13.23-5.92-13.23-13.23s5.92-13.23,13.23-13.23s13.23,5.92,13.23,13.23S66.59,115.77,59.28,115.77z" fill="#ffffff"/>
  <path d="M100,20C55.82,20,20,55.82,20,100s35.82,80,80,80s80-35.82,80-80S144.18,20,100,20z M145.91,134.55c-16.27,16.27-37.9,25.23-60.91,25.23s-44.64-8.96-60.91-25.23C7.82,118.27-1.14,96.64-1.14,73.64s8.96-44.64,25.23-60.91C40.36-3.55,62-12.5,85-12.5s44.64,8.96,60.91,25.23c16.27,16.27,25.23,37.9,25.23,60.91S162.18,118.27,145.91,134.55z" fill="#ffffff"/>
</svg>